# xmcd
#
# Track frame offsets:
#	150
#	14377
#	28635
#	42741
#	54318
#	71067
#	90304
#	109306
#	126105
#	140300
#	156684
#	171904
#	182594
#	199680
#	212951
#	226712
#	244568
#	257004
#	274502
#	288271
#	302539
#	322985
#	341483
#
# Disc length: 4781 seconds
#
# Revision: 1
# Processed by: cddbd v1.5.2PL0 Copyright (c) Steve Scherf et al.
# Submitted via: EasyCDDAExtractor 2010.6.0.0
#
DISCID=4612ab17
DTITLE=Various Artist - Country Hits, Vol. 27
DYEAR=2010
DGENRE=Country
TTITLE0=Hal Ketchum - (She's Something) You're Everything
TTITLE1=Hoyt Axton - Boney Fingers
TTITLE2=Kenny Rogers - If You Want To Find Love
TTITLE3=Kenny Rogers - Me and Bobby McGee
TTITLE4=Brad Paisley - Celebrity
TTITLE5=Hal Ketchum - Mama Knows The Highway
TTITLE6=Hank Williams Jr. - Montana Cafe
TTITLE7=Clint Black - Code Of The West
TTITLE8=Hoyt Axton - Water For My Horses
TTITLE9=Laura Cantrell - Early Years
TTITLE10=Brad Paisley - Wrapped Around
TTITLE11=Clint Black - Rainbow In The Rain
TTITLE12=Laura Cantrell - Dont Break The Heart
TTITLE13=Hal Ketchum - Small Town Saturday Night
TTITLE14=Keith Whitley - Buck
TTITLE15=Laura Cantrell - Two Seconds
TTITLE16=Clint Black - Killin' Time
TTITLE17=Brad Paisley - Come On In (Feat. Buck Owens)
TTITLE18=Keith Whitley - I'm Over You
TTITLE19=Keith Whitley - Light At The End Of The Tunnel
TTITLE20=Lyle Lovett - Private Conversation
TTITLE21=Brad Paisley - Ive Been Better
TTITLE22=Clint Black - Undercover Cowboy
EXTD=
EXTT0=
EXTT1=
EXTT2=
EXTT3=
EXTT4=
EXTT5=
EXTT6=
EXTT7=
EXTT8=
EXTT9=
EXTT10=
EXTT11=
EXTT12=
EXTT13=
EXTT14=
EXTT15=
EXTT16=
EXTT17=
EXTT18=
EXTT19=
EXTT20=
EXTT21=
EXTT22=
PLAYORDER=
